<svg xmlns="http://www.w3.org/2000/svg" xmlns:xlink="http://www.w3.org/1999/xlink" width="1146pt" height="203pt" viewBox="0.00 0.00 1146.15 203.30">
<g id="graph0" class="graph" transform="scale(1 1) rotate(0) translate(4 199.3)">
<title>HMM</title>
<polygon fill="white" stroke="none" points="-4,4 -4,-199.3 1142.15,-199.3 1142.15,4 -4,4"/>
<!-- initial -->
<g id="node1" class="node">
<title>initial</title>
<ellipse fill="lightblue" stroke="black" cx="75.68" cy="-154" rx="75.68" ry="41.3"/>
<text text-anchor="middle" x="75.68" y="-166.6" font-family="Helvetica,sans-Serif" font-size="14.00">Initial</text>
<text text-anchor="middle" x="75.68" y="-149.8" font-family="Helvetica,sans-Serif" font-size="14.00">Beer Features</text>
<text text-anchor="middle" x="75.68" y="-133" font-family="Helvetica,sans-Serif" font-size="14.00">(Beer Dataset)</text>
</g>
<!-- S1 -->
<g id="node2" class="node">
<title>S1</title>
<polygon fill="lightgrey" stroke="black" points="309.64,-172 210.37,-172 210.37,-136 309.64,-136 309.64,-172"/>
<text text-anchor="middle" x="260" y="-149.8" font-family="Helvetica,sans-Serif" font-size="14.00">Taste State 1</text>
</g>
<!-- initial&#45;&gt;S1 -->
<g id="edge1" class="edge">
<title>initial-&gt;S1</title>
<path fill="none" stroke="black" d="M151.63,-154C167.36,-154 183.76,-154 198.86,-154"/>
<polygon fill="black" stroke="black" points="198.62,-157.5 208.62,-154 198.62,-150.5 198.62,-157.5"/>
</g>
<!-- S2 -->
<g id="node3" class="node">
<title>S2</title>
<polygon fill="lightgrey" stroke="black" points="523.45,-172 424.18,-172 424.18,-136 523.45,-136 523.45,-172"/>
<text text-anchor="middle" x="473.82" y="-149.8" font-family="Helvetica,sans-Serif" font-size="14.00">Taste State 2</text>
</g>
<!-- S1&#45;&gt;S2 -->
<g id="edge2" class="edge">
<title>S1-&gt;S2</title>
<path fill="none" stroke="black" d="M310.13,-154C340.74,-154 380.34,-154 412.8,-154"/>
<polygon fill="black" stroke="black" points="412.44,-157.5 422.44,-154 412.44,-150.5 412.44,-157.5"/>
<text text-anchor="middle" x="366.91" y="-158.2" font-family="Helvetica,sans-Serif" font-size="14.00">P(S2|S1)</text>
</g>
<!-- O1 -->
<g id="node7" class="node">
<title>O1</title>
<ellipse fill="white" stroke="black" cx="260" cy="-18" rx="27" ry="18"/>
<text text-anchor="middle" x="260" y="-13.8" font-family="Helvetica,sans-Serif" font-size="14.00">O1</text>
</g>
<!-- S1&#45;&gt;O1 -->
<g id="edge6" class="edge">
<title>S1-&gt;O1</title>
<path fill="none" stroke="black" d="M260,-135.51C260,-112.94 260,-74.46 260,-47.71"/>
<polygon fill="black" stroke="black" points="263.5,-47.86 260,-37.86 256.5,-47.86 263.5,-47.86"/>
<text text-anchor="middle" x="248.6" y="-81.8" font-family="Helvetica,sans-Serif" font-size="14.00">P(O1|S1)</text>
</g>
<!-- S3 -->
<g id="node4" class="node">
<title>S3</title>
<polygon fill="lightgrey" stroke="black" points="677.05,-172 582.45,-172 582.45,-136 677.05,-136 677.05,-172"/>
<text text-anchor="middle" x="629.75" y="-149.8" font-family="Helvetica,sans-Serif" font-size="14.00">Taste State i</text>
</g>
<!-- S2&#45;&gt;S3 -->
<g id="edge3" class="edge">
<title>S2-&gt;S3</title>
<path fill="none" stroke="black" d="M523.95,-154C538.96,-154 555.6,-154 571.12,-154"/>
<polygon fill="black" stroke="black" points="570.67,-157.5 580.67,-154 570.67,-150.5 570.67,-157.5"/>
</g>
<!-- O2 -->
<g id="node8" class="node">
<title>O2</title>
<ellipse fill="white" stroke="black" cx="473.82" cy="-18" rx="27" ry="18"/>
<text text-anchor="middle" x="473.82" y="-13.8" font-family="Helvetica,sans-Serif" font-size="14.00">O2</text>
</g>
<!-- S2&#45;&gt;O2 -->
<g id="edge7" class="edge">
<title>S2-&gt;O2</title>
<path fill="none" stroke="black" d="M473.82,-135.51C473.82,-112.94 473.82,-74.46 473.82,-47.71"/>
<polygon fill="black" stroke="black" points="477.32,-47.86 473.82,-37.86 470.32,-47.86 477.32,-47.86"/>
<text text-anchor="middle" x="462.42" y="-81.8" font-family="Helvetica,sans-Serif" font-size="14.00">P(O2|S2)</text>
</g>
<!-- S4 -->
<g id="node5" class="node">
<title>S4</title>
<polygon fill="lightgrey" stroke="black" points="924.33,-172 813.78,-172 813.78,-136 924.33,-136 924.33,-172"/>
<text text-anchor="middle" x="869.05" y="-149.8" font-family="Helvetica,sans-Serif" font-size="14.00">Taste State i+1</text>
</g>
<!-- S3&#45;&gt;S4 -->
<g id="edge4" class="edge">
<title>S3-&gt;S4</title>
<path fill="none" stroke="black" d="M677.35,-154C712.98,-154 762.55,-154 802.23,-154"/>
<polygon fill="black" stroke="black" points="802.15,-157.5 812.15,-154 802.15,-150.5 802.15,-157.5"/>
<text text-anchor="middle" x="745.41" y="-158.2" font-family="Helvetica,sans-Serif" font-size="14.00">P(S_i+1|S_i)</text>
</g>
<!-- O3 -->
<g id="node9" class="node">
<title>O3</title>
<ellipse fill="white" stroke="black" cx="629.75" cy="-18" rx="27" ry="18"/>
<text text-anchor="middle" x="629.75" y="-13.8" font-family="Helvetica,sans-Serif" font-size="14.00">O_i</text>
</g>
<!-- S3&#45;&gt;O3 -->
<g id="edge8" class="edge">
<title>S3-&gt;O3</title>
<path fill="none" stroke="black" d="M629.75,-135.61C629.75,-106.27 629.75,-76.92 629.75,-47.58"/>
<polygon fill="black" stroke="black" points="633.25,-47.84 629.75,-37.84 626.25,-47.84 633.25,-47.84"/>
</g>
<!-- S5 -->
<g id="node6" class="node">
<title>S5</title>
<polygon fill="lightgrey" stroke="black" points="1138.15,-172 1038.88,-172 1038.88,-136 1138.15,-136 1138.15,-172"/>
<text text-anchor="middle" x="1088.51" y="-149.8" font-family="Helvetica,sans-Serif" font-size="14.00">Taste State 5</text>
</g>
<!-- S4&#45;&gt;S5 -->
<g id="edge5" class="edge">
<title>S4-&gt;S5</title>
<path fill="none" stroke="black" d="M924.65,-154C955.8,-154 994.91,-154 1026.99,-154"/>
<polygon fill="black" stroke="black" points="1026.95,-157.5 1036.95,-154 1026.95,-150.5 1026.95,-157.5"/>
<text text-anchor="middle" x="981.6" y="-158.2" font-family="Helvetica,sans-Serif" font-size="14.00">P(S5|S4)</text>
</g>
<!-- O4 -->
<g id="node10" class="node">
<title>O4</title>
<ellipse fill="white" stroke="black" cx="869.05" cy="-18" rx="37.07" ry="18"/>
<text text-anchor="middle" x="869.05" y="-13.8" font-family="Helvetica,sans-Serif" font-size="14.00">O_i+1</text>
</g>
<!-- S4&#45;&gt;O4 -->
<g id="edge9" class="edge">
<title>S4-&gt;O4</title>
<path fill="none" stroke="black" d="M869.05,-135.61C869.05,-106.27 869.05,-76.92 869.05,-47.58"/>
<polygon fill="black" stroke="black" points="872.55,-47.84 869.05,-37.84 865.55,-47.84 872.55,-47.84"/>
</g>
<!-- O5 -->
<g id="node11" class="node">
<title>O5</title>
<ellipse fill="white" stroke="black" cx="1088.51" cy="-18" rx="27" ry="18"/>
<text text-anchor="middle" x="1088.51" y="-13.8" font-family="Helvetica,sans-Serif" font-size="14.00">OT</text>
</g>
<!-- S5&#45;&gt;O5 -->
<g id="edge10" class="edge">
<title>S5-&gt;O5</title>
<path fill="none" stroke="black" d="M1088.51,-135.51C1088.51,-112.94 1088.51,-74.46 1088.51,-47.71"/>
<polygon fill="black" stroke="black" points="1092.01,-47.86 1088.51,-37.86 1085.01,-47.86 1092.01,-47.86"/>
<text text-anchor="middle" x="1077.11" y="-81.8" font-family="Helvetica,sans-Serif" font-size="14.00">P(O_T|S_T)</text>
</g>
</g>
</svg>